<mxfile host="app.diagrams.net" modified="2024-05-12T13:13:49.614Z" agent="Mozilla/5.0 (Windows NT 10.0; Win64; x64) AppleWebKit/537.36 (KHTML, like Gecko) Chrome/121.0.0.0 Safari/537.36 OPR/107.0.0.0" etag="tMFvXMhMthc1VTozZIZ3" version="24.4.0" type="device">
  <diagram name="Sayfa -1" id="iSUOl6uGH47uHDi9UsRD">
    <mxGraphModel dx="1639" dy="901" grid="1" gridSize="10" guides="1" tooltips="1" connect="1" arrows="1" fold="1" page="1" pageScale="1" pageWidth="827" pageHeight="1169" math="0" shadow="0">
      <root>
        <mxCell id="0" />
        <mxCell id="1" parent="0" />
        <mxCell id="k2caCcl_SJYuBLdyNzKk-11" value="" style="swimlane;startSize=0;" vertex="1" parent="1">
          <mxGeometry x="283" y="60" width="260" height="900" as="geometry" />
        </mxCell>
        <mxCell id="k2caCcl_SJYuBLdyNzKk-12" value="&lt;b&gt;Sayfaya Gİriş&lt;/b&gt;" style="ellipse;whiteSpace=wrap;html=1;" vertex="1" parent="k2caCcl_SJYuBLdyNzKk-11">
          <mxGeometry x="60" y="10" width="140" height="70" as="geometry" />
        </mxCell>
        <mxCell id="k2caCcl_SJYuBLdyNzKk-14" value="&lt;b&gt;Kulüp Görüntüleme&lt;/b&gt;" style="ellipse;whiteSpace=wrap;html=1;" vertex="1" parent="k2caCcl_SJYuBLdyNzKk-11">
          <mxGeometry x="60" y="90" width="140" height="70" as="geometry" />
        </mxCell>
        <mxCell id="k2caCcl_SJYuBLdyNzKk-13" value="&lt;b&gt;Kulüp Düzenleme&lt;/b&gt;" style="ellipse;whiteSpace=wrap;html=1;" vertex="1" parent="k2caCcl_SJYuBLdyNzKk-11">
          <mxGeometry x="60" y="170" width="140" height="70" as="geometry" />
        </mxCell>
        <mxCell id="k2caCcl_SJYuBLdyNzKk-15" value="&lt;b&gt;Duyuru Görüntüleme&lt;/b&gt;" style="ellipse;whiteSpace=wrap;html=1;" vertex="1" parent="k2caCcl_SJYuBLdyNzKk-11">
          <mxGeometry x="60" y="250" width="140" height="70" as="geometry" />
        </mxCell>
        <mxCell id="k2caCcl_SJYuBLdyNzKk-16" value="&lt;b&gt;Duyuru Düzenleme&lt;/b&gt;" style="ellipse;whiteSpace=wrap;html=1;" vertex="1" parent="k2caCcl_SJYuBLdyNzKk-11">
          <mxGeometry x="60" y="330" width="140" height="70" as="geometry" />
        </mxCell>
        <mxCell id="k2caCcl_SJYuBLdyNzKk-17" value="&lt;b&gt;Takvimi Görüntüleme&lt;/b&gt;" style="ellipse;whiteSpace=wrap;html=1;" vertex="1" parent="k2caCcl_SJYuBLdyNzKk-11">
          <mxGeometry x="60" y="410" width="140" height="70" as="geometry" />
        </mxCell>
        <mxCell id="k2caCcl_SJYuBLdyNzKk-18" value="&lt;b&gt;Takvimi Düzenleme&lt;/b&gt;" style="ellipse;whiteSpace=wrap;html=1;" vertex="1" parent="k2caCcl_SJYuBLdyNzKk-11">
          <mxGeometry x="60" y="490" width="140" height="70" as="geometry" />
        </mxCell>
        <mxCell id="k2caCcl_SJYuBLdyNzKk-27" value="&lt;b&gt;Üyelik Formu Görüntüleme&lt;/b&gt;" style="ellipse;whiteSpace=wrap;html=1;" vertex="1" parent="k2caCcl_SJYuBLdyNzKk-11">
          <mxGeometry x="61" y="570" width="140" height="70" as="geometry" />
        </mxCell>
        <mxCell id="k2caCcl_SJYuBLdyNzKk-28" value="&lt;b&gt;Üyelik Formu Düzenleme&lt;/b&gt;" style="ellipse;whiteSpace=wrap;html=1;" vertex="1" parent="k2caCcl_SJYuBLdyNzKk-11">
          <mxGeometry x="60" y="650" width="140" height="70" as="geometry" />
        </mxCell>
        <mxCell id="k2caCcl_SJYuBLdyNzKk-29" value="&lt;b&gt;Üyeleri Görüntüleme&lt;/b&gt;" style="ellipse;whiteSpace=wrap;html=1;" vertex="1" parent="k2caCcl_SJYuBLdyNzKk-11">
          <mxGeometry x="61" y="730" width="140" height="70" as="geometry" />
        </mxCell>
        <mxCell id="k2caCcl_SJYuBLdyNzKk-30" value="&lt;b&gt;Bütün Etkinliklerin Yönetimi&lt;/b&gt;" style="ellipse;whiteSpace=wrap;html=1;" vertex="1" parent="k2caCcl_SJYuBLdyNzKk-11">
          <mxGeometry x="61" y="810" width="140" height="70" as="geometry" />
        </mxCell>
        <mxCell id="k2caCcl_SJYuBLdyNzKk-38" value="" style="endArrow=none;html=1;rounded=0;fillColor=#008a00;strokeColor=#005700;" edge="1" parent="k2caCcl_SJYuBLdyNzKk-11">
          <mxGeometry relative="1" as="geometry">
            <mxPoint x="-173" y="350" as="sourcePoint" />
            <mxPoint x="61" y="120" as="targetPoint" />
          </mxGeometry>
        </mxCell>
        <mxCell id="k2caCcl_SJYuBLdyNzKk-55" value="Text" style="edgeLabel;html=1;align=center;verticalAlign=middle;resizable=0;points=[];" vertex="1" connectable="0" parent="k2caCcl_SJYuBLdyNzKk-38">
          <mxGeometry x="0.2613" y="-3" relative="1" as="geometry">
            <mxPoint as="offset" />
          </mxGeometry>
        </mxCell>
        <mxCell id="k2caCcl_SJYuBLdyNzKk-41" value="" style="endArrow=none;html=1;rounded=0;entryX=0;entryY=0.5;entryDx=0;entryDy=0;fillColor=#008a00;strokeColor=#005700;" edge="1" parent="k2caCcl_SJYuBLdyNzKk-11">
          <mxGeometry relative="1" as="geometry">
            <mxPoint x="-173" y="350" as="sourcePoint" />
            <mxPoint x="70" y="425" as="targetPoint" />
          </mxGeometry>
        </mxCell>
        <mxCell id="k2caCcl_SJYuBLdyNzKk-52" value="" style="endArrow=none;html=1;rounded=0;exitX=0.971;exitY=0.286;exitDx=0;exitDy=0;exitPerimeter=0;entryX=0;entryY=0.3333333333333333;entryDx=0;entryDy=0;entryPerimeter=0;" edge="1" parent="k2caCcl_SJYuBLdyNzKk-11" target="k2caCcl_SJYuBLdyNzKk-34">
          <mxGeometry relative="1" as="geometry">
            <mxPoint x="200.06" y="680" as="sourcePoint" />
            <mxPoint x="460.05999999999995" y="230" as="targetPoint" />
          </mxGeometry>
        </mxCell>
        <mxCell id="k2caCcl_SJYuBLdyNzKk-33" value="&lt;font style=&quot;font-size: 14px;&quot;&gt;Öğrenci&lt;/font&gt;" style="shape=umlActor;verticalLabelPosition=bottom;verticalAlign=top;html=1;" vertex="1" parent="1">
          <mxGeometry x="80" y="395" width="30" height="60" as="geometry" />
        </mxCell>
        <mxCell id="k2caCcl_SJYuBLdyNzKk-34" value="&lt;b style=&quot;font-size: 14px;&quot;&gt;Admin&lt;/b&gt;" style="shape=umlActor;verticalLabelPosition=bottom;verticalAlign=top;html=1;" vertex="1" parent="1">
          <mxGeometry x="740" y="180" width="30" height="60" as="geometry" />
        </mxCell>
        <mxCell id="k2caCcl_SJYuBLdyNzKk-35" value="&lt;b style=&quot;font-size: 13px;&quot;&gt;Kulüp Başkanı&lt;/b&gt;" style="shape=umlActor;verticalLabelPosition=bottom;verticalAlign=top;html=1;" vertex="1" parent="1">
          <mxGeometry x="740" y="525" width="30" height="60" as="geometry" />
        </mxCell>
        <mxCell id="k2caCcl_SJYuBLdyNzKk-36" value="" style="endArrow=none;html=1;rounded=0;entryX=0.026;entryY=0.719;entryDx=0;entryDy=0;entryPerimeter=0;fillColor=#008a00;strokeColor=#005700;" edge="1" parent="1" target="k2caCcl_SJYuBLdyNzKk-12">
          <mxGeometry relative="1" as="geometry">
            <mxPoint x="110" y="410" as="sourcePoint" />
            <mxPoint x="330" y="110" as="targetPoint" />
          </mxGeometry>
        </mxCell>
        <mxCell id="k2caCcl_SJYuBLdyNzKk-40" value="" style="endArrow=none;html=1;rounded=0;entryX=0;entryY=0.5;entryDx=0;entryDy=0;fillColor=#008a00;strokeColor=#005700;" edge="1" parent="1" target="k2caCcl_SJYuBLdyNzKk-15">
          <mxGeometry relative="1" as="geometry">
            <mxPoint x="110" y="410" as="sourcePoint" />
            <mxPoint x="374" y="320" as="targetPoint" />
          </mxGeometry>
        </mxCell>
        <mxCell id="k2caCcl_SJYuBLdyNzKk-43" value="" style="endArrow=none;html=1;rounded=0;entryX=0;entryY=0.5;entryDx=0;entryDy=0;fillColor=#008a00;strokeColor=#005700;" edge="1" parent="1">
          <mxGeometry relative="1" as="geometry">
            <mxPoint x="110" y="410" as="sourcePoint" />
            <mxPoint x="353" y="655" as="targetPoint" />
          </mxGeometry>
        </mxCell>
        <mxCell id="k2caCcl_SJYuBLdyNzKk-44" value="" style="endArrow=none;html=1;rounded=0;exitX=1.033;exitY=0.644;exitDx=0;exitDy=0;exitPerimeter=0;" edge="1" parent="1" source="k2caCcl_SJYuBLdyNzKk-12">
          <mxGeometry relative="1" as="geometry">
            <mxPoint x="580" y="200" as="sourcePoint" />
            <mxPoint x="740" y="200" as="targetPoint" />
          </mxGeometry>
        </mxCell>
        <mxCell id="k2caCcl_SJYuBLdyNzKk-45" value="" style="endArrow=none;html=1;rounded=0;exitX=1.003;exitY=0.388;exitDx=0;exitDy=0;exitPerimeter=0;" edge="1" parent="1" source="k2caCcl_SJYuBLdyNzKk-14">
          <mxGeometry relative="1" as="geometry">
            <mxPoint x="488" y="129.92" as="sourcePoint" />
            <mxPoint x="740" y="200" as="targetPoint" />
          </mxGeometry>
        </mxCell>
        <mxCell id="k2caCcl_SJYuBLdyNzKk-46" value="" style="endArrow=none;html=1;rounded=0;" edge="1" parent="1" source="k2caCcl_SJYuBLdyNzKk-13">
          <mxGeometry relative="1" as="geometry">
            <mxPoint x="480" y="180.24" as="sourcePoint" />
            <mxPoint x="730" y="200" as="targetPoint" />
          </mxGeometry>
        </mxCell>
        <mxCell id="k2caCcl_SJYuBLdyNzKk-47" value="" style="endArrow=none;html=1;rounded=0;exitX=0.921;exitY=0.162;exitDx=0;exitDy=0;exitPerimeter=0;" edge="1" parent="1" source="k2caCcl_SJYuBLdyNzKk-15">
          <mxGeometry relative="1" as="geometry">
            <mxPoint x="480.13" y="262" as="sourcePoint" />
            <mxPoint x="732" y="200" as="targetPoint" />
          </mxGeometry>
        </mxCell>
        <mxCell id="k2caCcl_SJYuBLdyNzKk-48" value="" style="endArrow=none;html=1;rounded=0;exitX=0.913;exitY=0.238;exitDx=0;exitDy=0;exitPerimeter=0;" edge="1" parent="1" source="k2caCcl_SJYuBLdyNzKk-16">
          <mxGeometry relative="1" as="geometry">
            <mxPoint x="480.06" y="411" as="sourcePoint" />
            <mxPoint x="740" y="200" as="targetPoint" />
          </mxGeometry>
        </mxCell>
        <mxCell id="k2caCcl_SJYuBLdyNzKk-49" value="" style="endArrow=none;html=1;rounded=0;exitX=0.951;exitY=0.268;exitDx=0;exitDy=0;exitPerimeter=0;entryX=0;entryY=0.3333333333333333;entryDx=0;entryDy=0;entryPerimeter=0;" edge="1" parent="1" source="k2caCcl_SJYuBLdyNzKk-17" target="k2caCcl_SJYuBLdyNzKk-34">
          <mxGeometry relative="1" as="geometry">
            <mxPoint x="490.18" y="417" as="sourcePoint" />
            <mxPoint x="759.18" y="210" as="targetPoint" />
          </mxGeometry>
        </mxCell>
        <mxCell id="k2caCcl_SJYuBLdyNzKk-50" value="" style="endArrow=none;html=1;rounded=0;exitX=0.957;exitY=0.2;exitDx=0;exitDy=0;exitPerimeter=0;" edge="1" parent="1" source="k2caCcl_SJYuBLdyNzKk-18">
          <mxGeometry relative="1" as="geometry">
            <mxPoint x="489.86" y="499" as="sourcePoint" />
            <mxPoint x="730" y="210" as="targetPoint" />
          </mxGeometry>
        </mxCell>
        <mxCell id="k2caCcl_SJYuBLdyNzKk-51" value="" style="endArrow=none;html=1;rounded=0;exitX=0.971;exitY=0.286;exitDx=0;exitDy=0;exitPerimeter=0;" edge="1" parent="1" source="k2caCcl_SJYuBLdyNzKk-27">
          <mxGeometry relative="1" as="geometry">
            <mxPoint x="487" y="574" as="sourcePoint" />
            <mxPoint x="740" y="200" as="targetPoint" />
          </mxGeometry>
        </mxCell>
        <mxCell id="k2caCcl_SJYuBLdyNzKk-53" value="" style="endArrow=none;html=1;rounded=0;exitX=0.9;exitY=0.286;exitDx=0;exitDy=0;exitPerimeter=0;" edge="1" parent="1" source="k2caCcl_SJYuBLdyNzKk-29">
          <mxGeometry relative="1" as="geometry">
            <mxPoint x="500" y="750" as="sourcePoint" />
            <mxPoint x="740" y="200" as="targetPoint" />
          </mxGeometry>
        </mxCell>
        <mxCell id="k2caCcl_SJYuBLdyNzKk-54" value="" style="endArrow=none;html=1;rounded=0;exitX=0.911;exitY=0.179;exitDx=0;exitDy=0;exitPerimeter=0;" edge="1" parent="1" source="k2caCcl_SJYuBLdyNzKk-30">
          <mxGeometry relative="1" as="geometry">
            <mxPoint x="500" y="850" as="sourcePoint" />
            <mxPoint x="740" y="200" as="targetPoint" />
          </mxGeometry>
        </mxCell>
      </root>
    </mxGraphModel>
  </diagram>
</mxfile>
